<svg width="192" height="283" viewBox="0 0 192 283" fill="none" xmlns="http://www.w3.org/2000/svg">
    <path d="M191.222 0.763091C191.218 0.664967 191.213 0.577965 191.209 0.501816H129.291L-56.5 182.559V282.5H191.051L191.052 282.184L191.06 279.811C191.067 277.732 191.077 274.684 191.089 270.804C191.113 263.045 191.146 251.961 191.184 238.663C191.259 212.068 191.351 176.615 191.416 141.189C191.481 105.762 191.52 70.3622 191.489 43.8708C191.474 30.6249 191.442 19.6072 191.386 11.9273C191.359 8.08694 191.326 5.08306 191.286 3.05302C191.266 2.03722 191.245 1.26914 191.222 0.763091Z" stroke="white" stroke-opacity="0.2"></path>
    </svg>