<?xml version="1.0" standalone="no"?>
<!DOCTYPE svg PUBLIC "-//W3C//DTD SVG 1.1//EN" "http://www.w3.org/Graphics/SVG/1.1/DTD/svg11.dtd" >
<svg xmlns="http://www.w3.org/2000/svg" xmlns:xlink="http://www.w3.org/1999/xlink" version="1.1">
<metadata>
Created by FontForge 20170731 at Thu Nov 30 13:11:55 2023
 By Aleksey,,,
</metadata>
<defs>
<font id="CoraRegular" horiz-adv-x="1032" >
  <font-face 
    font-family="Cora"
    font-weight="400"
    font-stretch="normal"
    units-per-em="2048"
    panose-1="0 0 0 0 0 0 0 0 0 0"
    ascent="1638"
    descent="-410"
    x-height="1434"
    cap-height="1434"
    bbox="-291.053 -359.1 1930.2 2347"
    underline-thickness="102"
    underline-position="-307"
    unicode-range="U+000A-2122"
  />
<missing-glyph horiz-adv-x="1079" 
d="M102 1434h875v-1434h-875v1434zM160 1393l379 -633l381 633h-760zM514 717l-369 614v-1231zM541 674l-379 -631h758zM565 717l371 -621v1239z" />
    <glyph glyph-name=".notdef" horiz-adv-x="1079" 
d="M102 1434h875v-1434h-875v1434zM160 1393l379 -633l381 633h-760zM514 717l-369 614v-1231zM541 674l-379 -631h758zM565 717l371 -621v1239z" />
    <glyph glyph-name=".null" horiz-adv-x="0" 
 />
    <glyph glyph-name=".null" horiz-adv-x="0" 
 />
    <glyph glyph-name="nonmarkingreturn" horiz-adv-x="682" 
 />
    <glyph glyph-name="LF" unicode="&#xa;" horiz-adv-x="0" 
 />
    <glyph glyph-name="controlCR" unicode="&#xd;" horiz-adv-x="0" 
 />
    <glyph glyph-name="space" unicode=" " horiz-adv-x="475" 
 />
    <glyph glyph-name="exclam" unicode="!" horiz-adv-x="358" 
d="M178 107q22 0 38 -15.5t16 -38.5q0 -22 -15.5 -37.5t-38.5 -15.5q-22 0 -37.5 15t-15.5 38t15.5 38.5t37.5 15.5zM226 341h-95v1093h95v-1093z" />
    <glyph glyph-name="quotedbl" unicode="&#x22;" horiz-adv-x="479" 
d="M244 1404l-88 -153l-82 48l88 152zM404 1404l-89 -153l-82 48l89 152z" />
    <glyph glyph-name="numbersign" unicode="#" horiz-adv-x="735" 
d="M636 1175h-106v-138h106v-94h-106v-106h-94v106h-138v-106h-95v106h-105v94h105v138h-105v95h105v105h95v-105h138v105h94v-105h106v-95zM436 1037v138h-138v-138h138z" />
    <glyph glyph-name="dollar" unicode="$" horiz-adv-x="1003" 
d="M883 1052v-47h-95v47q0 120 -84 204q-64 64 -156 80v-587l123 -51q94 -38 151.5 -122t60.5 -185v-9q0 -145 -96 -253t-239 -126v-159h-94v159q-143 18 -239 126t-96 253v48h95v-48q0 -105 68 -185.5t172 -97.5v587l-123 51q-95 38 -152.5 121.5t-59.5 185.5v8
q0 157 111 270q92 93 224 109v156h94v-156q129 -15 222 -108q113 -113 113 -271zM454 788v548q-104 -18 -172 -98.5t-68 -185.5v-6q2 -74 43.5 -134t109.5 -88zM635 610l-87 36v-547q104 17 172 97.5t68 185.5v7q-2 73 -43.5 133t-109.5 88z" />
    <glyph glyph-name="percent" unicode="%" horiz-adv-x="1087" 
d="M643 1168q0 -110 -78 -188t-188 -78t-188 78t-78 188t78 188t188 78t188 -78t78 -188zM377 996q71 0 121.5 50.5t50.5 121.5t-50.5 121.5t-121.5 50.5t-121.5 -50.5t-50.5 -121.5t50.5 -121.5t121.5 -50.5zM877 1434h95v-237l-670 -837v-360h-94v393l669 837v204z
M972 265q0 -110 -78.5 -188.5t-188.5 -78.5t-188 78.5t-78 188.5t78 188t188 78t188.5 -78t78.5 -188zM877 265q0 71 -50.5 121t-121.5 50t-121 -50t-50 -121t50 -121.5t121 -50.5t121.5 50.5t50.5 121.5z" />
    <glyph glyph-name="ampersand" unicode="&#x26;" horiz-adv-x="1017" 
d="M887 1052v-47h-95v47q0 119 -84 203t-203 84t-203 -84t-84 -203t84 -203.5t203 -84.5h382v-764h-95v130q-54 -62 -129 -96t-158 -34q-158 0 -270 112t-112 270q0 104 53.5 194.5t144.5 140.5q-91 50 -144.5 140.5t-53.5 194.5q0 158 112 270t270 112t270 -112t112 -270z
M792 669h-287q-119 0 -203 -84t-84 -203t84 -203t203 -84t203 84t84 203v287z" />
    <glyph glyph-name="quotesingle" unicode="'" horiz-adv-x="319" 
d="M244 1404l-88 -153l-82 48l88 152z" />
    <glyph glyph-name="parenleft" unicode="(" horiz-adv-x="757" 
d="M613 214q0 -205 45 -405q8 -27 -8 -46q-19 -22 -44 -19h-12q-9 0 -13 1q-207 46 -328 191t-120 340q1 71 0 201t-1 171v371h-1v508q0 165 2 247q4 160 98 289t245 182q41 16 95 26q38 5 73 -4q18 -8 20 -27q-2 -12 -10 -40t-9 -43q-3 -44 -12.5 -120t-15 -140.5
t-4.5 -121.5q1 -54 1 -322q0 -1033 -1 -1239z" />
    <glyph glyph-name="parenright" unicode=")" horiz-adv-x="761" 
d="M630 1678q-3 -31 -7 -86q-2 -62 -2 -73q1 -23 5 -87t4 -99q0 -243 -2 -731q1 -49 -3 -98q-8 -85 -1 -160q13 -328 -230 -508q-111 -80 -243 -78q-26 -1 -42 15.5t-9 38.5q7 24 12.5 47t9 52t5.5 45.5t3.5 53t2 45.5t1 53t0.5 48q0 68 9 136q15 86 0 172q-20 106 -2 209
q5 18 3 37q-7 101 -7.5 140t4.5 139.5t6 139.5q6 85 -8 173q-9 63 -2 123q13 167 6 333q-2 45 -10 149t-9 160q-8 75 -28 145q-6 29 9.5 45t46.5 13q88 -6 167 -44q162 -75 246 -235q23 -42 33 -80q30 -110 32 -233z" />
    <glyph glyph-name="asterisk" unicode="*" horiz-adv-x="219" 
d="M215 1657q-12 -5 -18 -15q-8 -16 -2 -22q43 -46 101 -67q74 -30 127 -95q3 -4 -4 -21q-3 -5 -10 -5q-83 36 -112 50q-21 10 -60 31t-60 31q-13 6 -22.5 -1t-10.5 -22l-3 -185q-3 -31 -15 -59q-2 -5 -21 -8q-5 0 -10 7q-5 8 -9 22l-9 135h8q-1 17 -3 49t-3 49
q-3 13 -13 19q-12 7 -24 2q-108 -64 -138 -80q-38 -21 -88 -45q-5 -2 -21 7q-6 4 -5 15.5t8 16.5q45 34 50 37q96 64 145 93q32 21 30 36t-33 35q-34 22 -99.5 62.5t-78.5 48.5q-15 10 -25 25q-5 12 1 22q8 10 20 10q72 -25 130 -69q31 -25 62 -40q47 -21 63.5 -10t18.5 62
q6 195 6 197q0 4 6 11t9 6q27 -7 29 -16q10 -38 11 -72q2 -33 3 -93.5t2 -79.5q0 -7 11 -13.5t18 -3.5q17 6 33 15q27 15 81 45.5t81 45.5q16 8 34 10q5 0 18 -13q4 -6 1 -12q-6 -11 -24 -27q-93 -71 -186 -121z" />
    <glyph glyph-name="plus" unicode="+" horiz-adv-x="591" 
d="M342 770h160v-94h-160v-160h-94v160h-160v94h160v160h94v-160z" />
    <glyph glyph-name="comma" unicode="," horiz-adv-x="280" 
d="M213 65l-88 -153l-82 47l88 153z" />
    <glyph glyph-name="hyphen" unicode="-" horiz-adv-x="544" 
d="M479 676h-413v94h413v-94z" />
    <glyph glyph-name="period" unicode="." horiz-adv-x="243" 
d="M121 101q23 0 38.5 -15.5t15.5 -38.5q0 -22 -15.5 -37.5t-38.5 -15.5t-38 15t-15 38t15.5 38.5t37.5 15.5z" />
    <glyph glyph-name="slash" unicode="/" horiz-adv-x="950" 
d="M1235 1997q2 -13 -5 -21q-11 -9 -22 -12q-5 -2 -20.5 -8.5t-24.5 -11.5q-87 -43 -121 -135q-31 -84 -102.5 -237.5t-99.5 -227.5q-46 -119 -79 -195q-52 -121 -158 -363q-70 -158 -103 -238q-48 -114 -140 -344q-14 -36 -20 -71q-8 -40 24 -66q20 -19 34 -35
q4 -5 0.5 -17.5t-10.5 -14.5q-24 -11 -46 -14q-36 -1 -74 8q-17 9 -73.5 5t-73.5 -2q-13 3 -18 14q-3 11 5 21q18 14 42 25q111 56 153 171l78 168q3 8 33 80q97 239 121 298q128 304 193 455q35 82 106 244.5t106 243.5q8 19 22 55t19 48q40 93 -22 147q-3 3 -7 11
q-4 12 2 23t19 14q23 2 131 9q1 0 46 -3.5t70 -6.5q11 -2 15 -17z" />
    <glyph glyph-name="zero" unicode="0" horiz-adv-x="1019" 
d="M509 0q-158 0 -270 112t-112 270v670q0 158 112 270t270 112t270 -112t112 -270v-670q0 -158 -112 -270t-270 -112zM222 1052v-670q0 -31 8 -66l509 908q-40 55 -101 85t-129 30q-119 0 -203 -84t-84 -203zM797 382v670q0 31 -8 66l-510 -908q40 -55 101 -85t129 -30
q119 0 203.5 84t84.5 203z" />
    <glyph glyph-name="one" unicode="1" horiz-adv-x="462" 
d="M329 0h-95v1339h-125v95h220v-1434z" />
    <glyph glyph-name="two" unicode="2" horiz-adv-x="991" 
d="M294 306q-84 -84 -84 -203v-8h669v-95h-764v103q0 158 112 270l473 476q84 84 84 203t-84 203t-203 84t-203 -84t-84 -203v-47h-95v47q0 158 112 270t270 112t270 -112t112 -270t-112 -270z" />
    <glyph glyph-name="three" unicode="3" horiz-adv-x="1003" 
d="M879 1051q0 -104 -53 -194t-145 -140q91 -50 144.5 -140.5t53.5 -194.5q0 -158 -112 -270t-270 -112t-270 112t-112 270v47h94v-47q0 -119 84.5 -203t203.5 -84t203 84t84 203t-84 203t-203 84h-48v95h48q119 0 203 84t84 203v1q0 119 -84 203t-203 84t-203 -84t-84 -203
v-48h-95v48q0 158 112 270t270 112t270 -112t112 -270v-1z" />
    <glyph glyph-name="four" unicode="4" horiz-adv-x="978" 
d="M749 1135q-54 -62 -129 -96t-158 -34q-158 0 -270 112t-112 270v47h95v-47q0 -119 84 -203.5t203 -84.5t203 84.5t84 203.5v47h95v-1434h-95v1135z" />
    <glyph glyph-name="five" unicode="5" horiz-adv-x="1003" 
d="M891 1339h-669v-574h287q158 0 270 -112t112 -270v-1q0 -158 -112 -270t-270 -112t-270 112t-112 270v47h95v-47q0 -119 84 -203t203 -84t203 84t84 203v1q0 119 -84 203t-203 84h-382v764h764v-95z" />
    <glyph glyph-name="six" unicode="6" horiz-adv-x="1011" 
d="M891 382q0 -158 -112 -270t-270 -112q-152 0 -262 104t-119 255h-1v693q0 158 112 270t270 112t270 -112t112 -270v-47h-95v47q0 119 -84 203t-203 84t-203 -84t-84 -203v-418q54 62 129 96t158 34q158 0 270 -112t112 -270zM509 95q119 0 203 84t84 203t-84 203t-203 84
t-203 -84t-84 -203t84 -203t203 -84z" />
    <glyph glyph-name="seven" unicode="7" horiz-adv-x="966" 
d="M207 368v-368h-94v396l628 943h-628v95h805z" />
    <glyph glyph-name="eight" unicode="8" horiz-adv-x="1011" 
d="M887 1052q0 -104 -53.5 -194.5t-144.5 -140.5q92 -50 145 -140t53 -194v-1q0 -158 -112 -270t-270 -112t-270 112t-112 270v1q0 104 53 194t145 140q-91 50 -144.5 140.5t-53.5 194.5q0 158 112 270t270 112t270 -112t112 -270zM792 1052q0 119 -84 203t-203 84t-203 -84
t-84 -203t84 -203t203 -84t203 84t84 203zM792 383q0 119 -84 203t-203 84t-203 -84t-84 -203v-1q0 -119 84 -203t203 -84t203 84t84 203v1z" />
    <glyph glyph-name="nine" unicode="9" horiz-adv-x="1011" 
d="M883 382q0 -158 -112 -270t-270 -112t-270 112t-112 270v47h95v-47q0 -119 84 -203t203 -84t203 84t84 203v418q-54 -62 -129 -96t-158 -34q-158 0 -270 112t-112 270t112 270t270 112t270 -112t112 -270v-670zM501 764q119 0 203 84.5t84 203.5t-84 203t-203 84
t-203 -84t-84 -203t84 -203.5t203 -84.5z" />
    <glyph glyph-name="colon" unicode=":" horiz-adv-x="268" 
d="M133 329q-23 0 -38 15.5t-15 37.5q0 23 15.5 38.5t37.5 15.5q23 0 38.5 -16t15.5 -38t-15.5 -37.5t-38.5 -15.5zM133 101q23 0 38.5 -15.5t15.5 -38.5q0 -22 -15.5 -37.5t-38.5 -15.5t-38 15t-15 38t15.5 38.5t37.5 15.5z" />
    <glyph glyph-name="semicolon" unicode=";" horiz-adv-x="305" 
d="M226 65l-89 -153l-82 47l89 153zM101 382q0 22 15.5 38t38.5 16q22 0 37.5 -15.5t15.5 -38.5q0 -22 -15 -37.5t-38 -15.5t-38.5 15.5t-15.5 37.5z" />
    <glyph glyph-name="less" unicode="&#x3c;" horiz-adv-x="534" 
d="M427 722q11 -15 12 -33q0 -3 -2 -6.5t-5 -7.5t-4 -6q-21 0 -23 1q-21 12 -39 30q-156 158 -233 237q-22 24 -32 37q-19 31 0 58q7 10 23 28q176 174 264 260q8 8 21 10q11 1 21 -7q9 -11 6 -22q-6 -17 -18 -31q-20 -20 -61 -60.5t-61 -61.5q-61 -62 -119 -125
q-19 -23 0 -45l138 -141q12 -13 35 -36t42 -42.5t35 -36.5z" />
    <glyph glyph-name="equal" unicode="=" horiz-adv-x="575" 
d="M494 747h-414v95h414v-95zM494 604h-414v95h414v-95z" />
    <glyph glyph-name="greater" unicode="&#x3e;" horiz-adv-x="528" 
d="M427 1030q18 -30 -2 -58q-3 -5 -24 -28q-40 -41 -120.5 -123t-121.5 -123q-3 -2 -11 -6q-7 -5 -19 -4.5t-13 7.5q-6 16 1 34q22 31 39 47q21 22 59.5 61.5t70 72t59.5 61.5q12 19 17 35q-12 24 -25 41q-30 31 -91 92t-91 92q-32 35 -62 76q-1 1 7 21q1 2 10 4q7 2 12 -1
q46 -28 89 -65q15 -15 186 -197q12 -13 30 -39z" />
    <glyph glyph-name="question" unicode="?" horiz-adv-x="958" 
d="M474 1434q157 0 268.5 -109.5t113.5 -266.5v-6q-2 -143 -97 -249t-237 -124v-338h-95v429h47q118 0 202 83t86 202q-1 118 -85 201t-203 83t-203 -84t-84 -203v-47h-95v47q0 158 112 270t270 112zM480 107q22 0 38 -15.5t16 -38.5q0 -22 -15.5 -37.5t-38.5 -15.5
q-22 0 -37.5 15t-15.5 38t15.5 38.5t37.5 15.5z" />
    <glyph glyph-name="at" unicode="@" horiz-adv-x="1943" 
d="M962 187q8 0 12 -4q9 -11 10 -20q0 -6 -3 -12.5t-7 -7.5q-11 -3 -79 -16q-86 16 -162 40q-154 54 -284 151q-73 55 -133 129q-139 173 -189 386q-13 82 -13 172q-11 232 110 426q68 123 171.5 218t231.5 153q67 25 129 41q14 4 24 -2q10 -8 13 -19q2 -7 -2 -11
q-30 -19 -53 -29q-263 -85 -422 -311q-112 -152 -140 -341q-23 -193 27 -380q4 -15 9 -24q55 -114 113 -199t138 -149q135 -112 305 -156q96 -29 194 -35zM1366 1504q113 -93 177 -219q71 -133 69.5 -285t-74.5 -284q-89 -169 -252 -265q-43 -28 -90 -41q-176 -49 -354 -14
q-114 20 -210.5 84t-160.5 160q-69 87 -97 198q-5 34 -18 151q1 18 2 64.5t4 67.5q5 44 25 95q57 148 170 255q132 129 319 151q172 25 329 -27q87 -28 161 -91zM1128 852q18 241 -26 480q-21 83 -50 166q-11 23 -26 41q-16 21 -43 21q-26 0 -42 -22q-44 -56 -62 -134
q-37 -132 -41 -268v-124h2l-1 -86q-1 -87 1 -87q6 -151 57 -290q21 -49 49 -85q14 -19 37 -19t37 18q45 62 60 135q4 16 13 57t15 63q19 68 20 134zM1793 1321q50 -128 58 -264q-1 -23 -13 -46q-3 -5 -10 -5q-19 3 -20 7q-20 67 -29 132q-27 197 -151 360q-35 49 -85 89
q-54 47 -136 106q-98 66 -214 89q-124 31 -257 28q-68 -3 -72 20q0 4 2 8q3 5 6.5 9.5t8.5 7.5t8 4.5t10 3t9 2t11 1.5t10 1q16 2 43 5t37 4q156 -14 292 -71q170 -64 298.5 -192.5t193.5 -298.5z" />
    <glyph glyph-name="A" unicode="A" horiz-adv-x="1011" 
d="M505 1434q158 0 270 -112.5t112 -270.5v-1051h-95v47q0 119 -84 203.5t-203 84.5t-203 -84.5t-84 -203.5v-47h-95v1051q0 158 112 270.5t270 112.5zM792 299v752q0 119 -84 203.5t-203 84.5t-203 -84.5t-84 -203.5v-752q54 62 129 96t158 34t158 -34t129 -96z" />
    <glyph glyph-name="A" unicode="&#xc5;" horiz-adv-x="1011" 
d="M505 1434q158 0 270 -112.5t112 -270.5v-1051h-95v47q0 119 -84 203.5t-203 84.5t-203 -84.5t-84 -203.5v-47h-95v1051q0 158 112 270.5t270 112.5zM792 299v752q0 119 -84 203.5t-203 84.5t-203 -84.5t-84 -203.5v-752q54 62 129 96t158 34t158 -34t129 -96z" />
    <glyph glyph-name="A" unicode="&#xc4;" horiz-adv-x="1011" 
d="M505 1434q158 0 270 -112.5t112 -270.5v-1051h-95v47q0 119 -84 203.5t-203 84.5t-203 -84.5t-84 -203.5v-47h-95v1051q0 158 112 270.5t270 112.5zM792 299v752q0 119 -84 203.5t-203 84.5t-203 -84.5t-84 -203.5v-752q54 62 129 96t158 34t158 -34t129 -96z" />
    <glyph glyph-name="A" unicode="&#xc3;" horiz-adv-x="1011" 
d="M505 1434q158 0 270 -112.5t112 -270.5v-1051h-95v47q0 119 -84 203.5t-203 84.5t-203 -84.5t-84 -203.5v-47h-95v1051q0 158 112 270.5t270 112.5zM792 299v752q0 119 -84 203.5t-203 84.5t-203 -84.5t-84 -203.5v-752q54 62 129 96t158 34t158 -34t129 -96z" />
    <glyph glyph-name="A" unicode="&#xc2;" horiz-adv-x="1011" 
d="M505 1434q158 0 270 -112.5t112 -270.5v-1051h-95v47q0 119 -84 203.5t-203 84.5t-203 -84.5t-84 -203.5v-47h-95v1051q0 158 112 270.5t270 112.5zM792 299v752q0 119 -84 203.5t-203 84.5t-203 -84.5t-84 -203.5v-752q54 62 129 96t158 34t158 -34t129 -96z" />
    <glyph glyph-name="A" unicode="&#xc1;" horiz-adv-x="1011" 
d="M505 1434q158 0 270 -112.5t112 -270.5v-1051h-95v47q0 119 -84 203.5t-203 84.5t-203 -84.5t-84 -203.5v-47h-95v1051q0 158 112 270.5t270 112.5zM792 299v752q0 119 -84 203.5t-203 84.5t-203 -84.5t-84 -203.5v-752q54 62 129 96t158 34t158 -34t129 -96z" />
    <glyph glyph-name="A" unicode="&#xc0;" horiz-adv-x="1011" 
d="M505 1434q158 0 270 -112.5t112 -270.5v-1051h-95v47q0 119 -84 203.5t-203 84.5t-203 -84.5t-84 -203.5v-47h-95v1051q0 158 112 270.5t270 112.5zM792 299v752q0 119 -84 203.5t-203 84.5t-203 -84.5t-84 -203.5v-752q54 62 129 96t158 34t158 -34t129 -96z" />
    <glyph glyph-name="B" unicode="B" horiz-adv-x="993" 
d="M897 1051q0 -104 -53 -194t-145 -140q91 -50 144.5 -140.5t53.5 -194.5q0 -158 -112 -270t-270 -112h-382v1434h382q158 0 270 -112.5t112 -270.5zM803 1051q0 119 -84.5 203.5t-203.5 84.5h-287v-575h287q119 0 203.5 84t84.5 203zM515 669h-287v-575h287
q119 0 203.5 84.5t84.5 203.5t-84.5 203t-203.5 84z" />
    <glyph glyph-name="C" unicode="C" horiz-adv-x="950" 
d="M875 382q0 -158 -112 -270t-270 -112t-270 112t-112 270v669q0 158 112 270.5t270 112.5t270 -112.5t112 -270.5v-47h-95v47q0 119 -84 203.5t-203 84.5t-203.5 -84.5t-84.5 -203.5v-669q0 -119 84.5 -203t203.5 -84t203 84t84 203v47h95v-47z" />
    <glyph glyph-name="C" unicode="&#xc7;" horiz-adv-x="950" 
d="M875 382q0 -158 -112 -270t-270 -112t-270 112t-112 270v669q0 158 112 270.5t270 112.5t270 -112.5t112 -270.5v-47h-95v47q0 119 -84 203.5t-203 84.5t-203.5 -84.5t-84.5 -203.5v-669q0 -119 84.5 -203t203.5 -84t203 84t84 203v47h95v-47z" />
    <glyph glyph-name="D" unicode="D" horiz-adv-x="1009" 
d="M897 382q0 -158 -112 -270t-270 -112h-382v1434h382q158 0 270 -112.5t112 -270.5v-669zM228 1339v-1244h287q119 0 203.5 84t84.5 203v669q0 119 -84.5 203.5t-203.5 84.5h-287z" />
    <glyph glyph-name="E" unicode="E" horiz-adv-x="923" 
d="M133 0v1434h764v-95h-669v-910h335v-94h-335v-240h669v-95h-764z" />
    <glyph glyph-name="E" unicode="&#xcb;" horiz-adv-x="923" 
d="M133 0v1434h764v-95h-669v-910h335v-94h-335v-240h669v-95h-764z" />
    <glyph glyph-name="E" unicode="&#xca;" horiz-adv-x="923" 
d="M133 0v1434h764v-95h-669v-910h335v-94h-335v-240h669v-95h-764z" />
    <glyph glyph-name="E" unicode="&#xc9;" horiz-adv-x="923" 
d="M133 0v1434h764v-95h-669v-910h335v-94h-335v-240h669v-95h-764z" />
    <glyph glyph-name="E" unicode="&#xc8;" horiz-adv-x="923" 
d="M133 0v1434h764v-95h-669v-910h335v-94h-335v-240h669v-95h-764z" />
    <glyph glyph-name="F" unicode="F" horiz-adv-x="901" 
d="M133 0v1434h764v-95h-669v-910h335v-94h-335v-335h-95z" />
    <glyph glyph-name="G" unicode="G" horiz-adv-x="993" 
d="M780 130q-54 -62 -129 -96t-158 -34q-158 0 -270 112t-112 270v669q0 158 112 270.5t270 112.5t270 -112.5t112 -270.5v-47h-95v47q0 119 -84 203.5t-203 84.5t-203.5 -84.5t-84.5 -203.5v-669q0 -119 84.5 -203t203.5 -84t203 84t84 203v325h-335v95h430v-802h-95v130z
" />
    <glyph glyph-name="H" unicode="H" 
d="M897 1434v-1434h-94v335h-575v-335h-95v1434h95v-1005h575v1005h94z" />
    <glyph glyph-name="I" unicode="I" horiz-adv-x="362" 
d="M228 0h-95v1434h95v-1434z" />
    <glyph glyph-name="I" unicode="&#xcf;" horiz-adv-x="362" 
d="M228 0h-95v1434h95v-1434z" />
    <glyph glyph-name="I" unicode="&#xce;" horiz-adv-x="362" 
d="M228 0h-95v1434h95v-1434z" />
    <glyph glyph-name="I" unicode="&#xcd;" horiz-adv-x="362" 
d="M228 0h-95v1434h95v-1434z" />
    <glyph glyph-name="I" unicode="&#xcc;" horiz-adv-x="362" 
d="M228 0h-95v1434h95v-1434z" />
    <glyph glyph-name="J" unicode="J" horiz-adv-x="913" 
d="M791 382q0 -158 -112 -270t-270 -112t-270 112t-112 270v47h94v-47q0 -119 84.5 -203t203.5 -84t203 84t84 203v957h-335v94h430v-1051z" />
    <glyph glyph-name="K" unicode="K" horiz-adv-x="1015" 
d="M897 47v-47h-94v47q0 119 -84.5 203.5t-203.5 84.5h-287v-335h-95v1434h95v-1005h287q119 0 203.5 84.5t84.5 203.5v717h94v-717q0 -104 -53.5 -194.5t-144.5 -140.5q91 -50 144.5 -140.5t53.5 -194.5z" />
    <glyph glyph-name="L" unicode="L" horiz-adv-x="901" 
d="M897 95v-95h-764v1434h95v-1339h669z" />
    <glyph glyph-name="M" unicode="M" 
d="M803 1135q-54 -62 -129.5 -96.5t-158.5 -34.5q-82 0 -157.5 34.5t-129.5 96.5v-1135h-95v1434h95v-48q0 -119 84 -203t203 -84t203.5 84t84.5 203v48h94v-1434h-94v1135z" />
    <glyph glyph-name="N" unicode="N" 
d="M803 0v743q0 158 -76.5 292.5t-208.5 215.5t-290 87v-1338h-95v1434h74q137 1 264 -52t224 -151q65 -65 108 -138v341h94v-1434h-94z" />
    <glyph glyph-name="N" unicode="&#xd1;" 
d="M803 0v743q0 158 -76.5 292.5t-208.5 215.5t-290 87v-1338h-95v1434h74q137 1 264 -52t224 -151q65 -65 108 -138v341h94v-1434h-94z" />
    <glyph glyph-name="O" unicode="O" horiz-adv-x="987" 
d="M493 1434q158 0 270 -112.5t112 -270.5v-669q0 -158 -112 -270t-270 -112t-270 112t-112 270v669q0 158 112 270.5t270 112.5zM780 382v669q0 119 -84 203.5t-203 84.5t-203.5 -84.5t-84.5 -203.5v-669q0 -119 84.5 -203t203.5 -84t203 84t84 203z" />
    <glyph glyph-name="O" unicode="&#xd8;" horiz-adv-x="987" 
d="M493 1434q158 0 270 -112.5t112 -270.5v-669q0 -158 -112 -270t-270 -112t-270 112t-112 270v669q0 158 112 270.5t270 112.5zM780 382v669q0 119 -84 203.5t-203 84.5t-203.5 -84.5t-84.5 -203.5v-669q0 -119 84.5 -203t203.5 -84t203 84t84 203z" />
    <glyph glyph-name="O" unicode="&#xd6;" horiz-adv-x="987" 
d="M493 1434q158 0 270 -112.5t112 -270.5v-669q0 -158 -112 -270t-270 -112t-270 112t-112 270v669q0 158 112 270.5t270 112.5zM780 382v669q0 119 -84 203.5t-203 84.5t-203.5 -84.5t-84.5 -203.5v-669q0 -119 84.5 -203t203.5 -84t203 84t84 203z" />
    <glyph glyph-name="O" unicode="&#xd5;" horiz-adv-x="987" 
d="M493 1434q158 0 270 -112.5t112 -270.5v-669q0 -158 -112 -270t-270 -112t-270 112t-112 270v669q0 158 112 270.5t270 112.5zM780 382v669q0 119 -84 203.5t-203 84.5t-203.5 -84.5t-84.5 -203.5v-669q0 -119 84.5 -203t203.5 -84t203 84t84 203z" />
    <glyph glyph-name="O" unicode="&#xd4;" horiz-adv-x="987" 
d="M493 1434q158 0 270 -112.5t112 -270.5v-669q0 -158 -112 -270t-270 -112t-270 112t-112 270v669q0 158 112 270.5t270 112.5zM780 382v669q0 119 -84 203.5t-203 84.5t-203.5 -84.5t-84.5 -203.5v-669q0 -119 84.5 -203t203.5 -84t203 84t84 203z" />
    <glyph glyph-name="O" unicode="&#xd3;" horiz-adv-x="987" 
d="M493 1434q158 0 270 -112.5t112 -270.5v-669q0 -158 -112 -270t-270 -112t-270 112t-112 270v669q0 158 112 270.5t270 112.5zM780 382v669q0 119 -84 203.5t-203 84.5t-203.5 -84.5t-84.5 -203.5v-669q0 -119 84.5 -203t203.5 -84t203 84t84 203z" />
    <glyph glyph-name="O" unicode="&#xd2;" horiz-adv-x="987" 
d="M493 1434q158 0 270 -112.5t112 -270.5v-669q0 -158 -112 -270t-270 -112t-270 112t-112 270v669q0 158 112 270.5t270 112.5zM780 382v669q0 119 -84 203.5t-203 84.5t-203.5 -84.5t-84.5 -203.5v-669q0 -119 84.5 -203t203.5 -84t203 84t84 203z" />
    <glyph glyph-name="P" unicode="P" horiz-adv-x="976" 
d="M897 717q0 -158 -112 -270t-270 -112h-287v-335h-95v1434h382q158 0 270 -112.5t112 -270.5v-334zM228 1339v-909h287q119 0 203.5 84t84.5 203v335q0 119 -84.5 203t-203.5 84h-287z" />
    <glyph glyph-name="Q" unicode="Q" horiz-adv-x="995" 
d="M477 0q-154 7 -260 117.5t-106 264.5v669q0 158 112 270.5t270 112.5t270 -112.5t112 -270.5v-669q0 -82 -34.5 -157.5t-96.5 -129.5h131v-95h-398zM205 382q0 -119 84.5 -203t203.5 -84t203 84t84 203v669q0 119 -84 203.5t-203 84.5t-203.5 -84.5t-84.5 -203.5v-669z
" />
    <glyph glyph-name="R" unicode="R" horiz-adv-x="1005" 
d="M515 335h-287v-335h-95v1434h382q158 0 270 -112.5t112 -270.5v-334q0 -104 -53.5 -194.5t-144.5 -140.5q91 -50 144.5 -140.5t53.5 -194.5v-47h-94v47q0 119 -84.5 203.5t-203.5 84.5zM228 1339v-909h287q119 0 203.5 84t84.5 203v335q0 119 -84.5 203t-203.5 84h-287z
" />
    <glyph glyph-name="S" unicode="S" horiz-adv-x="937" 
d="M850 382q0 -158 -112 -270t-270 -112t-270 112t-112 270v47h95v-47q0 -119 84 -203t203 -84t203 84t84 203v7q-2 74 -43.5 133.5t-109.5 87.5l-304 126q-94 38 -152 122t-60 186v7q0 157 111 270t269 113h2q159 0 270 -111q112 -112 112 -271v-48h-95v48q0 119 -84 203
q-86 86 -205 84q-118 -1 -201.5 -84.5t-83.5 -202.5v-6q2 -74 44 -134.5t110 -88.5l303 -125q94 -38 151.5 -122t60.5 -185v-9z" />
    <glyph glyph-name="T" unicode="T" horiz-adv-x="770" 
d="M2 1434h764v-95h-334v-1339h-95v1339h-335v95z" />
    <glyph glyph-name="U" unicode="U" horiz-adv-x="1007" 
d="M503 0q-158 0 -270 112t-112 270v1052h95v-1052q0 -119 84 -203t203 -84t203 84t84 203v1052h95v-1052q0 -158 -112 -270t-270 -112z" />
    <glyph glyph-name="U" unicode="&#xdc;" horiz-adv-x="1007" 
d="M503 0q-158 0 -270 112t-112 270v1052h95v-1052q0 -119 84 -203t203 -84t203 84t84 203v1052h95v-1052q0 -158 -112 -270t-270 -112z" />
    <glyph glyph-name="U" unicode="&#xdb;" horiz-adv-x="1007" 
d="M503 0q-158 0 -270 112t-112 270v1052h95v-1052q0 -119 84 -203t203 -84t203 84t84 203v1052h95v-1052q0 -158 -112 -270t-270 -112z" />
    <glyph glyph-name="U" unicode="&#xda;" horiz-adv-x="1007" 
d="M503 0q-158 0 -270 112t-112 270v1052h95v-1052q0 -119 84 -203t203 -84t203 84t84 203v1052h95v-1052q0 -158 -112 -270t-270 -112z" />
    <glyph glyph-name="U" unicode="&#xd9;" horiz-adv-x="1007" 
d="M503 0q-158 0 -270 112t-112 270v1052h95v-1052q0 -119 84 -203t203 -84t203 84t84 203v1052h95v-1052q0 -158 -112 -270t-270 -112z" />
    <glyph glyph-name="V" unicode="V" horiz-adv-x="999" 
d="M803 691v743h94v-743q0 -138 -52.5 -265.5t-149.5 -223.5q-96 -97 -223 -149.5t-265 -52.5h-74v1434h95v-1339q158 6 290 87t208.5 216t76.5 293z" />
    <glyph glyph-name="W" unicode="W" horiz-adv-x="1193" 
d="M966 96v1338h94v-1434h-63q-127 0 -235 67t-165 180q-57 -113 -165 -180t-235 -67h-64v1434h95v-1338q136 12 228.5 113t92.5 238v48h95v-48q0 -137 92.5 -238t229.5 -113z" />
    <glyph glyph-name="X" unicode="X" horiz-adv-x="999" 
d="M786 717v717h95v-717q0 -104 -53.5 -194.5t-144.5 -140.5q91 -50 144.5 -140.5t53.5 -194.5v-47h-95v47q0 119 -84 203.5t-203 84.5t-203 -84.5t-84 -203.5v-47h-95v47q0 104 53.5 194.5t144.5 140.5q-91 50 -144.5 140.5t-53.5 194.5v717h95v-717q0 -119 84 -203.5
t203 -84.5t203 84.5t84 203.5z" />
    <glyph glyph-name="Y" unicode="Y" horiz-adv-x="942" 
d="M758 717v717h94v-717q0 -145 -95.5 -253t-238.5 -126v-338h-95v338q-143 18 -239 126t-96 253v717h95v-717q0 -119 84 -203.5t203 -84.5t203.5 84.5t84.5 203.5z" />
    <glyph glyph-name="Y" unicode="&#x178;" horiz-adv-x="942" 
d="M758 717v717h94v-717q0 -145 -95.5 -253t-238.5 -126v-338h-95v338q-143 18 -239 126t-96 253v717h95v-717q0 -119 84 -203.5t203 -84.5t203.5 84.5t84.5 203.5z" />
    <glyph glyph-name="Y" unicode="&#xdd;" horiz-adv-x="942" 
d="M758 717v717h94v-717q0 -145 -95.5 -253t-238.5 -126v-338h-95v338q-143 18 -239 126t-96 253v717h95v-717q0 -119 84 -203.5t203 -84.5t203.5 84.5t84.5 203.5z" />
    <glyph glyph-name="Z" unicode="Z" horiz-adv-x="876" 
d="M58 1434h793l-669 -1339h640v-95h-793l669 1339h-640v95z" />
    <glyph glyph-name="bracketleft" unicode="[" horiz-adv-x="624" 
d="M675 -299q10 -6 12 -19q-1 -17 -15 -30q-14 -11 -34 -11q-41 -1 -85 8q-63 16 -123 7q-23 -2 -196 -10q-13 0 -25 3q-29 5 -48.5 26t-21.5 50q-4 71 -4 161q-2 528 -2 792v322h2v1138q0 94 1 112q-3 40 25 68q29 29 68 27q27 2 123 2q149 0 223 -1q13 0 37 -2
q25 -2 39.5 -13t11.5 -27q-7 -18 -23 -28t-35 -8q-13 0 -37 1.5t-37 1.5q-27 -5 -35 -31q-5 -39 -7 -86q-1 -136 -1 -408q0 -126 0.5 -377.5t0.5 -377.5q1 -143 1 -427.5t1 -426.5q0 -53 0.5 -161t0.5 -161q0 -34 4 -61q1 -13 11 -22t23 -11q18 -2 51 -3.5t47 -2.5
q23 -3 47 -14z" />
    <glyph glyph-name="backslash" unicode="\" horiz-adv-x="964" 
d="M816 59q56 -24 44 -47q-18 -29 -52 -26h-112v1h-99q-22 1 -36.5 8.5t-14.5 17.5q0 9 4.5 17t8 10.5t13.5 10.5q18 12 28 24q29 29 14 69q-44 116 -68 173q-86 204 -130 306l-84 192q-259 616 -288 683q-25 60 -73.5 169t-65.5 148q-35 75 -106 118q-10 7 -31 20t-31 20
q-8 10 -7 22q3 12 12 19q5 5 11 5q27 1 77.5 2.5t91.5 2.5t77 1q13 -2 18 -14q3 -18 -4 -33q-11 -12 -37 -32q-14 -12 -19.5 -31t0.5 -37q7 -32 18 -71q31 -76 95 -228q39 -91 117 -272.5t117 -272.5q23 -53 68.5 -159t67.5 -159q32 -74 95 -221.5t94 -221.5q5 -12 14 -35
t14 -34q39 -97 136 -136q4 -2 11.5 -5t11.5 -4z" />
    <glyph glyph-name="bracketright" unicode="]" horiz-adv-x="753" 
d="M619 2095q1 0 1 -539l-1 -538q0 -4 -0.5 -12.5t-0.5 -12.5h-3v-532q0 -405 -1 -607q0 -17 -2 -49q0 -26 -17.5 -45.5t-43.5 -21.5q-24 -4 -37 -4l-396 3q-28 4 -47 11q-8 2 -11.5 13.5t1.5 16.5q1 1 3.5 4.5t4.5 4.5q34 11 52.5 41t12.5 64q-2 30 -0.5 179.5t1.5 179.5
v1573q0 1 -3 334q1 20 -10.5 35.5t-30.5 19.5q-26 9 -44 21q-4 2 -6 22q0 5 8 8q21 5 48 7q138 3 421 7q19 0 37 -3q23 -2 39 -18t18 -38q7 -72 7 -124z" />
    <glyph glyph-name="underscore" unicode="_" horiz-adv-x="550" 
d="M481 0h-413v95h413v-95z" />
    <glyph glyph-name="a" unicode="a" horiz-adv-x="1011" 
d="M505 1434q158 0 270 -112.5t112 -270.5v-1051h-95v47q0 119 -84 203.5t-203 84.5t-203 -84.5t-84 -203.5v-47h-95v1051q0 158 112 270.5t270 112.5zM792 299v752q0 119 -84 203.5t-203 84.5t-203 -84.5t-84 -203.5v-752q54 62 129 96t158 34t158 -34t129 -96z" />
    <glyph glyph-name="a" unicode="&#xe5;" horiz-adv-x="1011" 
d="M505 1434q158 0 270 -112.5t112 -270.5v-1051h-95v47q0 119 -84 203.5t-203 84.5t-203 -84.5t-84 -203.5v-47h-95v1051q0 158 112 270.5t270 112.5zM792 299v752q0 119 -84 203.5t-203 84.5t-203 -84.5t-84 -203.5v-752q54 62 129 96t158 34t158 -34t129 -96z" />
    <glyph glyph-name="a" unicode="&#xe4;" horiz-adv-x="1011" 
d="M505 1434q158 0 270 -112.5t112 -270.5v-1051h-95v47q0 119 -84 203.5t-203 84.5t-203 -84.5t-84 -203.5v-47h-95v1051q0 158 112 270.5t270 112.5zM792 299v752q0 119 -84 203.5t-203 84.5t-203 -84.5t-84 -203.5v-752q54 62 129 96t158 34t158 -34t129 -96z" />
    <glyph glyph-name="a" unicode="&#xe3;" horiz-adv-x="1011" 
d="M505 1434q158 0 270 -112.5t112 -270.5v-1051h-95v47q0 119 -84 203.5t-203 84.5t-203 -84.5t-84 -203.5v-47h-95v1051q0 158 112 270.5t270 112.5zM792 299v752q0 119 -84 203.5t-203 84.5t-203 -84.5t-84 -203.5v-752q54 62 129 96t158 34t158 -34t129 -96z" />
    <glyph glyph-name="a" unicode="&#xe2;" horiz-adv-x="1011" 
d="M505 1434q158 0 270 -112.5t112 -270.5v-1051h-95v47q0 119 -84 203.5t-203 84.5t-203 -84.5t-84 -203.5v-47h-95v1051q0 158 112 270.5t270 112.5zM792 299v752q0 119 -84 203.5t-203 84.5t-203 -84.5t-84 -203.5v-752q54 62 129 96t158 34t158 -34t129 -96z" />
    <glyph glyph-name="a" unicode="&#xe1;" horiz-adv-x="1011" 
d="M505 1434q158 0 270 -112.5t112 -270.5v-1051h-95v47q0 119 -84 203.5t-203 84.5t-203 -84.5t-84 -203.5v-47h-95v1051q0 158 112 270.5t270 112.5zM792 299v752q0 119 -84 203.5t-203 84.5t-203 -84.5t-84 -203.5v-752q54 62 129 96t158 34t158 -34t129 -96z" />
    <glyph glyph-name="a" unicode="&#xe0;" horiz-adv-x="1011" 
d="M505 1434q158 0 270 -112.5t112 -270.5v-1051h-95v47q0 119 -84 203.5t-203 84.5t-203 -84.5t-84 -203.5v-47h-95v1051q0 158 112 270.5t270 112.5zM792 299v752q0 119 -84 203.5t-203 84.5t-203 -84.5t-84 -203.5v-752q54 62 129 96t158 34t158 -34t129 -96z" />
    <glyph glyph-name="b" unicode="b" horiz-adv-x="993" 
d="M897 1051q0 -104 -53 -194t-145 -140q91 -50 144.5 -140.5t53.5 -194.5q0 -158 -112 -270t-270 -112h-382v1434h382q158 0 270 -112.5t112 -270.5zM803 1051q0 119 -84.5 203.5t-203.5 84.5h-287v-575h287q119 0 203.5 84t84.5 203zM515 669h-287v-575h287
q119 0 203.5 84.5t84.5 203.5t-84.5 203t-203.5 84z" />
    <glyph glyph-name="c" unicode="c" horiz-adv-x="950" 
d="M875 382q0 -158 -112 -270t-270 -112t-270 112t-112 270v669q0 158 112 270.5t270 112.5t270 -112.5t112 -270.5v-47h-95v47q0 119 -84 203.5t-203 84.5t-203.5 -84.5t-84.5 -203.5v-669q0 -119 84.5 -203t203.5 -84t203 84t84 203v47h95v-47z" />
    <glyph glyph-name="c" unicode="&#xe7;" horiz-adv-x="950" 
d="M875 382q0 -158 -112 -270t-270 -112t-270 112t-112 270v669q0 158 112 270.5t270 112.5t270 -112.5t112 -270.5v-47h-95v47q0 119 -84 203.5t-203 84.5t-203.5 -84.5t-84.5 -203.5v-669q0 -119 84.5 -203t203.5 -84t203 84t84 203v47h95v-47z" />
    <glyph glyph-name="d" unicode="d" horiz-adv-x="1009" 
d="M897 382q0 -158 -112 -270t-270 -112h-382v1434h382q158 0 270 -112.5t112 -270.5v-669zM228 1339v-1244h287q119 0 203.5 84t84.5 203v669q0 119 -84.5 203.5t-203.5 84.5h-287z" />
    <glyph glyph-name="e" unicode="e" horiz-adv-x="923" 
d="M133 0v1434h764v-95h-669v-910h335v-94h-335v-240h669v-95h-764z" />
    <glyph glyph-name="e" unicode="&#xeb;" horiz-adv-x="923" 
d="M133 0v1434h764v-95h-669v-910h335v-94h-335v-240h669v-95h-764z" />
    <glyph glyph-name="e" unicode="&#xea;" horiz-adv-x="923" 
d="M133 0v1434h764v-95h-669v-910h335v-94h-335v-240h669v-95h-764z" />
    <glyph glyph-name="e" unicode="&#xe9;" horiz-adv-x="923" 
d="M133 0v1434h764v-95h-669v-910h335v-94h-335v-240h669v-95h-764z" />
    <glyph glyph-name="e" unicode="&#xe8;" horiz-adv-x="923" 
d="M133 0v1434h764v-95h-669v-910h335v-94h-335v-240h669v-95h-764z" />
    <glyph glyph-name="f" unicode="f" horiz-adv-x="901" 
d="M133 0v1434h764v-95h-669v-910h335v-94h-335v-335h-95z" />
    <glyph glyph-name="g" unicode="g" horiz-adv-x="993" 
d="M780 130q-54 -62 -129 -96t-158 -34q-158 0 -270 112t-112 270v669q0 158 112 270.5t270 112.5t270 -112.5t112 -270.5v-47h-95v47q0 119 -84 203.5t-203 84.5t-203.5 -84.5t-84.5 -203.5v-669q0 -119 84.5 -203t203.5 -84t203 84t84 203v325h-335v95h430v-802h-95v130z
" />
    <glyph glyph-name="h" unicode="h" 
d="M897 1434v-1434h-94v335h-575v-335h-95v1434h95v-1005h575v1005h94z" />
    <glyph glyph-name="i" unicode="i" horiz-adv-x="362" 
d="M228 0h-95v1434h95v-1434z" />
    <glyph glyph-name="i" unicode="&#xef;" horiz-adv-x="362" 
d="M228 0h-95v1434h95v-1434z" />
    <glyph glyph-name="i" unicode="&#xee;" horiz-adv-x="362" 
d="M228 0h-95v1434h95v-1434z" />
    <glyph glyph-name="i" unicode="&#xed;" horiz-adv-x="362" 
d="M228 0h-95v1434h95v-1434z" />
    <glyph glyph-name="i" unicode="&#xec;" horiz-adv-x="362" 
d="M228 0h-95v1434h95v-1434z" />
    <glyph glyph-name="j" unicode="j" horiz-adv-x="913" 
d="M791 382q0 -158 -112 -270t-270 -112t-270 112t-112 270v47h94v-47q0 -119 84.5 -203t203.5 -84t203 84t84 203v957h-335v94h430v-1051z" />
    <glyph glyph-name="k" unicode="k" horiz-adv-x="1015" 
d="M897 47v-47h-94v47q0 119 -84.5 203.5t-203.5 84.5h-287v-335h-95v1434h95v-1005h287q119 0 203.5 84.5t84.5 203.5v717h94v-717q0 -104 -53.5 -194.5t-144.5 -140.5q91 -50 144.5 -140.5t53.5 -194.5z" />
    <glyph glyph-name="l" unicode="l" horiz-adv-x="901" 
d="M897 95v-95h-764v1434h95v-1339h669z" />
    <glyph glyph-name="m" unicode="m" 
d="M803 1135q-54 -62 -129.5 -96.5t-158.5 -34.5q-82 0 -157.5 34.5t-129.5 96.5v-1135h-95v1434h95v-48q0 -119 84 -203t203 -84t203.5 84t84.5 203v48h94v-1434h-94v1135z" />
    <glyph glyph-name="n" unicode="n" 
d="M803 0v743q0 158 -76.5 292.5t-208.5 215.5t-290 87v-1338h-95v1434h74q137 1 264 -52t224 -151q65 -65 108 -138v341h94v-1434h-94z" />
    <glyph glyph-name="n" unicode="&#xf1;" 
d="M803 0v743q0 158 -76.5 292.5t-208.5 215.5t-290 87v-1338h-95v1434h74q137 1 264 -52t224 -151q65 -65 108 -138v341h94v-1434h-94z" />
    <glyph glyph-name="o" unicode="o" horiz-adv-x="987" 
d="M493 1434q158 0 270 -112.5t112 -270.5v-669q0 -158 -112 -270t-270 -112t-270 112t-112 270v669q0 158 112 270.5t270 112.5zM780 382v669q0 119 -84 203.5t-203 84.5t-203.5 -84.5t-84.5 -203.5v-669q0 -119 84.5 -203t203.5 -84t203 84t84 203z" />
    <glyph glyph-name="o" unicode="&#xf8;" horiz-adv-x="987" 
d="M493 1434q158 0 270 -112.5t112 -270.5v-669q0 -158 -112 -270t-270 -112t-270 112t-112 270v669q0 158 112 270.5t270 112.5zM780 382v669q0 119 -84 203.5t-203 84.5t-203.5 -84.5t-84.5 -203.5v-669q0 -119 84.5 -203t203.5 -84t203 84t84 203z" />
    <glyph glyph-name="o" unicode="&#xf6;" horiz-adv-x="987" 
d="M493 1434q158 0 270 -112.5t112 -270.5v-669q0 -158 -112 -270t-270 -112t-270 112t-112 270v669q0 158 112 270.5t270 112.5zM780 382v669q0 119 -84 203.5t-203 84.5t-203.5 -84.5t-84.5 -203.5v-669q0 -119 84.5 -203t203.5 -84t203 84t84 203z" />
    <glyph glyph-name="o" unicode="&#xf5;" horiz-adv-x="987" 
d="M493 1434q158 0 270 -112.5t112 -270.5v-669q0 -158 -112 -270t-270 -112t-270 112t-112 270v669q0 158 112 270.5t270 112.5zM780 382v669q0 119 -84 203.5t-203 84.5t-203.5 -84.5t-84.5 -203.5v-669q0 -119 84.5 -203t203.5 -84t203 84t84 203z" />
    <glyph glyph-name="o" unicode="&#xf4;" horiz-adv-x="987" 
d="M493 1434q158 0 270 -112.5t112 -270.5v-669q0 -158 -112 -270t-270 -112t-270 112t-112 270v669q0 158 112 270.5t270 112.5zM780 382v669q0 119 -84 203.5t-203 84.5t-203.5 -84.5t-84.5 -203.5v-669q0 -119 84.5 -203t203.5 -84t203 84t84 203z" />
    <glyph glyph-name="o" unicode="&#xf3;" horiz-adv-x="987" 
d="M493 1434q158 0 270 -112.5t112 -270.5v-669q0 -158 -112 -270t-270 -112t-270 112t-112 270v669q0 158 112 270.5t270 112.5zM780 382v669q0 119 -84 203.5t-203 84.5t-203.5 -84.5t-84.5 -203.5v-669q0 -119 84.5 -203t203.5 -84t203 84t84 203z" />
    <glyph glyph-name="o" unicode="&#xf2;" horiz-adv-x="987" 
d="M493 1434q158 0 270 -112.5t112 -270.5v-669q0 -158 -112 -270t-270 -112t-270 112t-112 270v669q0 158 112 270.5t270 112.5zM780 382v669q0 119 -84 203.5t-203 84.5t-203.5 -84.5t-84.5 -203.5v-669q0 -119 84.5 -203t203.5 -84t203 84t84 203z" />
    <glyph glyph-name="p" unicode="p" horiz-adv-x="976" 
d="M897 717q0 -158 -112 -270t-270 -112h-287v-335h-95v1434h382q158 0 270 -112.5t112 -270.5v-334zM228 1339v-909h287q119 0 203.5 84t84.5 203v335q0 119 -84.5 203t-203.5 84h-287z" />
    <glyph glyph-name="q" unicode="q" horiz-adv-x="995" 
d="M477 0q-154 7 -260 117.5t-106 264.5v669q0 158 112 270.5t270 112.5t270 -112.5t112 -270.5v-669q0 -82 -34.5 -157.5t-96.5 -129.5h131v-95h-398zM205 382q0 -119 84.5 -203t203.5 -84t203 84t84 203v669q0 119 -84 203.5t-203 84.5t-203.5 -84.5t-84.5 -203.5v-669z
" />
    <glyph glyph-name="r" unicode="r" horiz-adv-x="1005" 
d="M515 335h-287v-335h-95v1434h382q158 0 270 -112.5t112 -270.5v-334q0 -104 -53.5 -194.5t-144.5 -140.5q91 -50 144.5 -140.5t53.5 -194.5v-47h-94v47q0 119 -84.5 203.5t-203.5 84.5zM228 1339v-909h287q119 0 203.5 84t84.5 203v335q0 119 -84.5 203t-203.5 84h-287z
" />
    <glyph glyph-name="s" unicode="s" horiz-adv-x="937" 
d="M850 382q0 -158 -112 -270t-270 -112t-270 112t-112 270v47h95v-47q0 -119 84 -203t203 -84t203 84t84 203v7q-2 74 -43.5 133.5t-109.5 87.5l-304 126q-94 38 -152 122t-60 186v7q0 157 111 270t269 113h2q159 0 270 -111q112 -112 112 -271v-48h-94v48q0 118 -85 203
q-86 86 -205 84q-118 -1 -201.5 -84.5t-83.5 -202.5v-6q2 -74 44 -134.5t110 -88.5l303 -125q94 -38 151.5 -122t60.5 -185v-9z" />
    <glyph glyph-name="t" unicode="t" horiz-adv-x="770" 
d="M2 1434h764v-95h-334v-1339h-95v1339h-335v95z" />
    <glyph glyph-name="u" unicode="u" horiz-adv-x="1007" 
d="M503 0q-158 0 -270 112t-112 270v1052h95v-1052q0 -119 84 -203t203 -84t203 84t84 203v1052h95v-1052q0 -158 -112 -270t-270 -112z" />
    <glyph glyph-name="u" unicode="&#xfc;" horiz-adv-x="1007" 
d="M503 0q-158 0 -270 112t-112 270v1052h95v-1052q0 -119 84 -203t203 -84t203 84t84 203v1052h95v-1052q0 -158 -112 -270t-270 -112z" />
    <glyph glyph-name="u" unicode="&#xfb;" horiz-adv-x="1007" 
d="M503 0q-158 0 -270 112t-112 270v1052h95v-1052q0 -119 84 -203t203 -84t203 84t84 203v1052h95v-1052q0 -158 -112 -270t-270 -112z" />
    <glyph glyph-name="u" unicode="&#xfa;" horiz-adv-x="1007" 
d="M503 0q-158 0 -270 112t-112 270v1052h95v-1052q0 -119 84 -203t203 -84t203 84t84 203v1052h95v-1052q0 -158 -112 -270t-270 -112z" />
    <glyph glyph-name="u" unicode="&#xf9;" horiz-adv-x="1007" 
d="M503 0q-158 0 -270 112t-112 270v1052h95v-1052q0 -119 84 -203t203 -84t203 84t84 203v1052h95v-1052q0 -158 -112 -270t-270 -112z" />
    <glyph glyph-name="v" unicode="v" horiz-adv-x="999" 
d="M803 691v743h94v-743q0 -138 -52.5 -265.5t-149.5 -223.5q-96 -97 -223 -149.5t-265 -52.5h-74v1434h95v-1339q158 6 290 87t208.5 216t76.5 293z" />
    <glyph glyph-name="w" unicode="w" horiz-adv-x="1193" 
d="M966 96v1338h94v-1434h-63q-127 0 -235 67t-165 180q-57 -113 -165 -180t-235 -67h-64v1434h95v-1338q136 12 228.5 113t92.5 238v48h95v-48q0 -137 92.5 -238t229.5 -113z" />
    <glyph glyph-name="x" unicode="x" horiz-adv-x="999" 
d="M786 717v717h95v-717q0 -104 -53.5 -194.5t-144.5 -140.5q91 -50 144.5 -140.5t53.5 -194.5v-47h-95v47q0 119 -84 203.5t-203 84.5t-203 -84.5t-84 -203.5v-47h-95v47q0 104 53.5 194.5t144.5 140.5q-91 50 -144.5 140.5t-53.5 194.5v717h95v-717q0 -119 84 -203.5
t203 -84.5t203 84.5t84 203.5z" />
    <glyph glyph-name="y" unicode="y" horiz-adv-x="942" 
d="M758 717v717h94v-717q0 -145 -95.5 -253t-238.5 -126v-338h-95v338q-143 18 -239 126t-96 253v717h95v-717q0 -119 84 -203.5t203 -84.5t203.5 84.5t84.5 203.5z" />
    <glyph glyph-name="y" unicode="&#xff;" horiz-adv-x="942" 
d="M758 717v717h94v-717q0 -145 -95.5 -253t-238.5 -126v-338h-95v338q-143 18 -239 126t-96 253v717h95v-717q0 -119 84 -203.5t203 -84.5t203.5 84.5t84.5 203.5z" />
    <glyph glyph-name="y" unicode="&#xfd;" horiz-adv-x="942" 
d="M758 717v717h94v-717q0 -145 -95.5 -253t-238.5 -126v-338h-95v338q-143 18 -239 126t-96 253v717h95v-717q0 -119 84 -203.5t203 -84.5t203.5 84.5t84.5 203.5z" />
    <glyph glyph-name="z" unicode="z" horiz-adv-x="876" 
d="M58 1434h793l-669 -1339h640v-95h-793l669 1339h-640v95z" />
    <glyph glyph-name="braceleft" unicode="{" horiz-adv-x="786" 
d="M688 -236q-14 -14 -33 -13q-127 5 -232 73q-165 111 -225 300q-20 60 -20 122v223h-1q0 20 1 61.5t1 74t-3 61.5q-2 17 -5 59.5t-5 65.5t-7 57.5t-13 64t-19 57.5q-12 29 -1 60q54 171 51 353q1 39 1 236v86q1 120 17.5 178.5t75.5 162.5q26 51 72 82q14 9 65.5 43
t80.5 51q70 42 153 44q30 0 46 -17.5t9 -45.5q-44 -202 -38 -417v-285q-2 -172 -105 -311q-80 -116 -211 -166q-8 -3 -8 -14.5t8 -16.5q28 -18 43 -25q70 -39 117 -89q73 -69 112.5 -162t38.5 -193q3 -200 2 -359q0 -164 34 -319q2 -8 5 -24t5 -24q2 -20 -12 -34z" />
    <glyph glyph-name="braceright" unicode="}" horiz-adv-x="788" 
d="M658 966q-39 -150 -39 -306q-13 -145 -1 -295q8 -122 -23 -234q-34 -142 -143 -241q-9 -8 -28.5 -24t-28.5 -24q-79 -76 -188 -87q-16 -1 -44 -6.5t-41 -6.5q-19 0 -32 16q-12 15 -9 34q7 19 12.5 40t9.5 38.5t7.5 41.5t5.5 39t3.5 42t2.5 39t1.5 42t1 39.5t0.5 42.5v40
q0 36 4.5 104t5.5 81q3 26 -1 49q-18 106 14 209q29 159 157 259q18 14 54 41.5t54 41.5q36 28 -4 59q-22 19 -40 29q-15 7 -28.5 15t-26.5 20t-22.5 20t-22 24t-18.5 23t-18.5 27t-16.5 25.5t-17.5 28t-15.5 26.5q-23 38 -30 81q-27 133 -30 270q1 51 -1 309q2 131 -33 245
q-4 12 -8 36q-3 21 8 35q12 14 32 16q52 3 98 -7q192 -56 307 -220q65 -93 76 -206q3 -25 5 -54t4 -63.5t3 -53.5q-13 -98 2 -199q3 -29 4 -62t1 -73.5t1 -62.5q-2 -106 33 -207q18 -47 3 -96z" />
    <glyph glyph-name="asciitilde" unicode="~" horiz-adv-x="559" 
d="M420 1384l67 -67q-50 -50 -120 -50q-71 0 -121 50q-22 23 -53 23t-54 -23l-67 67q50 50 120.5 50t120.5 -50q22 -22 53 -22q32 0 54 22z" />
    <glyph glyph-name="nonbreakingspace" unicode="&#xa0;" horiz-adv-x="475" 
 />
    <glyph glyph-name="cent" unicode="&#xa2;" horiz-adv-x="1292" 
d="M1154 593q3 1 10.5 -2t9.5 -7q5 -12 0 -23q-5 -12 -14 -20q-115 -95 -259 -136q-130 -33 -263.5 -9t-244.5 100q-33 22 -55 25.5t-39.5 -5.5t-44.5 -36l-8 -8q-7 -5 -16.5 -17t-15.5 -17.5t-19.5 -9.5t-27.5 6q-6 18 -1 31.5t21.5 29t20.5 21.5q4 5 19.5 26.5t23.5 33.5
q15 24 0 47q-9 16 -25.5 43.5t-29.5 51t-23 45.5q-139 314 43 588q31 46 72 100q38 50 94 79q22 9 43 25q25 23 60 39t58 22t71 16t64 14q30 7 61 -2q72 -19 146 -18q63 -5 118 -35q14 -8 23 -24.5t2 -25.5q-18 -21 -44 -11l-177 54q-30 14 -61 3q-30 -11 -44 -40
q-44 -65 -59 -135q-44 -184 -46 -380q-2 -218 48 -428q13 -73 67 -130q32 -36 79 -26q16 3 48.5 9t48.5 9q69 14 125 49q33 21 141 78zM1317 1550v1q-11 -20 -31 -38q-214 -216 -321 -323q-18 -15 -40 -26q-2 -1 -6.5 0.5t-5.5 1.5q-12 18 -11 19q8 25 28 52q13 14 121 122
q4 4 16.5 15.5t18.5 18.5q17 16 18.5 38.5t-12.5 40.5q-10 16 -11 33q0 4 5 9t10 7q12 4 24 -1q55 -30 110 24q27 24 57 45q7 5 19.5 3.5t13.5 -8.5q4 -15 -3 -34z" />
    <glyph glyph-name="sterling" unicode="&#xa3;" horiz-adv-x="1857" 
d="M1752 462q3 -50 3 -99q0 -1 -3 -247q0 -13 -2 -37q2 -30 -19 -51t-51 -21q-25 -2 -74 -2h-421v6q-23 -1 -96.5 -2t-113.5 -3q-18 -1 -148 -1t-198 -11q-31 -3 -61 3q-168 24 -332 -4q-29 -3 -60 7q-27 10 -25 39q0 12 3 24q55 212 53 429q1 0 1 173l-1 173l-3 87
q2 26 -14 46t-42 24q-17 4 -31 17q-5 9 0 21q31 17 55 26q25 8 30 35q5 42 5 74v297q-1 86 17 172q62 262 333 370q50 16 97 16q129 -1 258 18q230 6 451 -65q153 -49 283 -149q47 -41 89 -86q16 -23 1 -46q-157 -162 -190 -195q-17 -12 -35 -7q-19 5 -28 24q-7 15 -19.5 45
t-19.5 45q-68 159 -190 272q-99 96 -237 88q0 -2 -87 -1l-86 1q-8 0 -24.5 0.5t-24.5 0.5q-28 3 -52 -16q-23 -18 -26 -48q-2 -20 -7.5 -60t-8.5 -64.5t-6 -58.5t-4 -63q-1 -40 -4 -483q0 -37 3 -74q2 -35 33 -48q38 -16 56 -26q4 -3 7 -21q0 -3 -8 -8q-4 -2 -12 -4
q-57 -9 -66.5 -19t-10.5 -60q-1 -66 -1 -198t-1 -198q-2 -188 -122 -330q-37 -40 -89 -85q-9 -11 -8 -22q5 -11 16 -13q99 -5 198 -6q103 -1 310 -1q27 2 49 -1q93 -20 183 1q41 -5 83 7t89 32t77 27q58 48 101 91q87 84 104 206q6 38 21 70q6 10 20 12q11 0 20 -11
q10 -14 13 -34zM959 1055q52 -16 54 -17q11 -6 11 -20t-9 -21q-13 -10 -32 -13q-49 5 -84 14q-10 2 -16.5 11t-1.5 15q8 14 26 22q34 8 52 9z" />
    <glyph glyph-name="yen" unicode="&#xa5;" horiz-adv-x="1421" 
d="M1682 2018q3 -1 11 -19q2 -6 -3 -11q-12 -14 -30 -22q-116 -46 -160 -163q-30 -64 -119 -272q-243 -561 -299 -692q-13 -30 -35 -92q-3 -7 4 -16t16 -11q16 -2 29 -0.5t28.5 -1t26.5 -10.5q11 -9 12 -20q-2 -13 -10 -20q-11 -11 -21 -12q-14 -2 -40 -3t-34 -2
q-37 -3 -53 -18.5t-26 -58.5q-1 -4 3.5 -11t7.5 -7q16 -1 49 -1t50 -1q26 -3 47 -13q10 -8 10 -20q-1 -11 -13 -18q-18 -8 -35 -8q-13 0 -47 1.5t-52 0.5q-20 -1 -34 -14t-16 -32q-3 -152 -2 -273q3 -55 47 -83q11 -8 33 -20t31 -18q14 -12 18 -30q2 -9 -8.5 -18.5
t-24.5 -11.5q-36 -9 -74 -6q-27 5 -53.5 8.5t-57.5 4t-51.5 1t-57.5 -2t-51.5 -3.5t-57.5 -5t-53 -5q-88 -6 -184 15q-29 5 -39 11.5t-8 17.5q6 25 30 36l30 21q43 32 45 85q2 166 -2 285q-1 14 -11.5 40.5t-11.5 39.5q0 36 -13 73q-7 28 -31 44.5t-53 12.5q-6 0 -18 -1.5
t-18 -1.5q-13 0 -24 4q-8 3 -8 9q0 20 4 21q5 2 58 18q17 3 24 18t-1 30q-84 215 -111 274q-82 179 -169 399q-1 4 -4 11t-5 11q-25 59 -76 177t-76 176q-20 57 -64 97t-102 55q-14 2 -23 9q-18 20 -17 30q6 19 24 25q29 9 61 7q22 -1 61 -6.5t49 -6.5v7q15 0 43.5 -2
t42.5 -2q37 -4 74 0q48 10 98.5 12.5t123.5 0.5t99 -2q29 -2 71 -17q19 -11 10 -31q-3 -6 -7 -10q-67 -56 -26 -157q86 -210 145 -342q95 -213 163 -388q20 -53 132 -306q15 -31 40 -62q23 -18 46 -1q16 16 29 39q14 32 29.5 68t34.5 80t29 68q19 45 58 135.5t59 136.5
q23 53 68 159t68 159q37 84 40 91q41 89 71 171q22 45 16 83.5t-48 67.5q-8 10 -5 22q5 12 16 15q140 8 210 10q26 -2 48 -12z" />
    <glyph glyph-name="copyright" unicode="&#xa9;" horiz-adv-x="1261" 
d="M905 1453q134 -86 200 -231t44 -302q-6 -41 -25 -83q-56 -125 -154 -222q-17 -20 -38 -31q-106 -55 -229 -91q-29 -7 -49 -6q-145 16 -202 33q-46 14 -84 35q-30 13 -52 33q-79 82 -128.5 157.5t-68.5 165.5q-28 114 6 231q48 182 200 289q39 26 82 18q13 22 29 37
q80 56 176 50q159 -5 293 -83zM926 658q49 31 87 87.5t57 119.5t23.5 129.5t-13.5 116.5q-34 135 -133 233q-10 8 -54 50q-43 37 -97 52q-153 49 -304 10q-45 -8 -85 -8q-29 -55 -80 -91q-42 -33 -71 -68q-153 -246 -48 -469q107 -228 374 -270q60 2 95.5 5.5t85 14
t89.5 32.5t74 56zM834 861q20 -20 36 -49q12 -34 -16 -55q-86 -80 -203 -77q-88 -1 -166 40.5t-126 115.5q-54 98 -52 209q10 89 63 161t135 107q58 21 107 31q28 7 61 -1q51 -16 151 -54q12 -7 20 -15q24 -17 26 -47t-22 -49q-16 -22 -42 -22q-28 0 -43 21q-7 9 -20.5 30
t-21.5 31q-35 40 -88 35q-52 -5 -79 -51q-49 -84 -56.5 -181t28.5 -188q16 -40 36 -64q37 -47 73.5 -48t82.5 43q29 34 51 70q12 17 31 18q21 2 34 -11z" />
    <glyph glyph-name="softhyphen" unicode="&#xad;" horiz-adv-x="0" 
 />
    <glyph glyph-name="registered" unicode="&#xae;" horiz-adv-x="1253" 
d="M951 1411q173 -115 192 -366q3 -250 -156 -406q-43 -44 -99 -73q-54 -28 -124 -55q-77 -28 -157 -17q-140 12 -259 75q-83 50 -136 128t-92 185q-55 338 167 527q75 55 156 99q9 4 11 5q91 21 165.5 23t154.5 -22t148 -80q14 -13 29 -23zM299 734q22 22 31 51q9 58 8 110
q0 37 -2 111.5t-2 111.5q6 98 -20 196q-3 19 1 35q-54 -40 -86 -102q-66 -115 -63.5 -248.5t72.5 -245.5q8 -11 16 -19q9 -9 22 -9q14 0 23 9zM907 745q27 -24 29 -64q68 48 98 123q55 100 54 214t-59 212q-66 132 -198 198t-277 40q-141 -14 -237 -118q35 0 100 0.5t118 1
t100 1.5q124 2 215 -79q40 -33 52 -82q20 -54 9.5 -109t-48.5 -98q-4 -4 -12 -13.5t-12 -14.5q-19 -21 -22 -49t12 -53q28 -60 78 -110zM929 670q5 8 6 10h-50.5h-59h-50.5q-62 2 -92 54q-12 17 -33.5 52.5t-32.5 52.5q-13 18 -32 36q-16 11 -35 5t-24 -25q-17 -69 19 -131
q6 -16 -3 -30q-10 -15 -26 -15q-29 -1 -86 -2t-86 -2q-5 0 -16 -14q-1 -1 0.5 -5t3.5 -5q88 -71 198.5 -94.5t220.5 7.5q100 30 178 106zM524 996q5 -26 31 -34q56 -12 109 4q25 8 36 30q42 108 8 218q-4 25 -23.5 42t-45.5 17q-30 1 -61 0q-46 -1 -49 -43q-4 -74 -5 -99
v-47v-49v-39z" />
    <glyph glyph-name="multiply" unicode="&#xd7;" horiz-adv-x="837" 
d="M721 1264q-153 -153 -211 -207q-26 -23 -34 -57t6 -66q42 -3 77 -36q24 -29 80 -77t80 -76q12 -13 18 -32q3 -13 -4 -22q-12 -12 -21 -9q-26 7 -43 22q-78 94 -162 169q-20 23 -34 51q-24 8 -48 12q-20 2 -35 -4q-11 -4 -19 -14q-20 -21 -92.5 -89.5t-105.5 -112.5
q-5 -6 -17 -18q-12 -13 -30 -15t-24 8q-14 26 8 44q135 142 162 169q40 34 69 86q14 25 -4 46q-20 23 -85 88q-19 18 -64.5 61t-69.5 67q-14 15 -23 42q-2 5 9 21q2 2 11 2q37 -8 62 -37q31 -30 93.5 -89.5t93.5 -88.5q20 -17 29 -24q23 -17 46 -2q32 16 57 46
q58 64 178 188q13 14 30 20q17 5 33 -5q10 -13 5 -32q-8 -17 -21 -29z" />
    <glyph glyph-name="divide" unicode="&#xf7;" horiz-adv-x="1038" 
d="M792 1030q19 -2 34 -12q10 -8 8 -21q-1 -11 -13 -18q-28 -7 -49 -7q-18 0 -55 1t-56 0q-17 -3 -30 -10q7 -9 16 -16q3 -2 14 -9t17 -12q64 -58 78 -144t-27 -162q-33 -65 -97 -92q-71 -37 -150.5 -22.5t-133.5 74.5q-52 56 -60.5 132.5t28.5 143.5q31 55 80 94q8 6 5 9
q-10 13 -15 13q-27 0 -77.5 0.5t-92 1t-78.5 1.5q-26 3 -45 14q-4 2 -7 21q2 6 6 9q17 10 34 13h148v1h136q1 0 13 3q-4 9 -12 19q-8 6 -24.5 19t-24.5 19q-78 72 -78 176t78 176q50 51 121 56q5 0 22.5 0.5t26.5 1.5q91 10 165 -67t67 -182q-3 -29 -16 -60
q-30 -75 -94 -128q-9 -10 -6 -21q4 -9 20 -9q14 -1 39 -2t46 -2t39 -2zM942 1017q11 -13 12 -16l-9 -6q-4 5 -12 17l5 2.5t4 2.5z" />
    <glyph glyph-name="quoteleft" unicode="&#x2018;" horiz-adv-x="319" 
d="M244 1404l-88 -153l-82 48l88 152z" />
    <glyph glyph-name="quoteright" unicode="&#x2019;" horiz-adv-x="319" 
d="M244 1404l-88 -153l-82 48l88 152z" />
    <glyph glyph-name="quotedblleft" unicode="&#x201c;" horiz-adv-x="479" 
d="M244 1404l-88 -153l-82 48l88 152zM404 1404l-89 -153l-82 48l89 152z" />
    <glyph glyph-name="quotedblright" unicode="&#x201d;" horiz-adv-x="479" 
d="M244 1404l-88 -153l-82 48l88 152zM404 1404l-89 -153l-82 48l89 152z" />
    <glyph glyph-name="Euro" unicode="&#x20ac;" horiz-adv-x="2015" 
d="M1770 488q10 -10 62.5 -61t78.5 -79q19 -19 17 -45q-2 -27 -22 -43q-8 -10 -18 -18q-126 -112 -281 -177q-46 -17 -58 -22q-248 -101 -509 -41q-93 19 -145 32q-36 9 -59 20q-177 79 -316.5 212.5t-226.5 306.5q-51 111 -72 224q-1 5 -2.5 15t-3 18t-3.5 15
q-10 41 -50 49q-16 2 -48 10q-12 7 -12 19q2 13 12 20q10 4 29.5 10.5t28.5 10.5q23 15 21 41q-2 27 -26 38q-2 1 -29.5 7t-38.5 18q-6 9 -5 11q5 17 9 19q18 8 35 8q36 0 54 19.5t26 57.5q18 84 40 155q63 190 195.5 341t313.5 239q169 81 355 101q26 0 47 -10
q10 -6 12 -19t-8 -21q-23 -15 -54 -28q-93 -37 -166 -105.5t-117 -158.5q-96 -180 -131 -384q-3 -21 -9.5 -61.5t-9.5 -60.5q2 -29 28 -37q42 -7 74 -7q80 0 158 -26q5 -1 10 -16q2 -2 -8 -8q-50 -22 -108 -22q-57 -2 -112 -6q-19 0 -32 -15q-14 -15 -12 -34q1 -16 12 -28
t27 -13q36 -3 37 -3h74v2q85 -4 124 -7q10 -1 17 -10t3 -15q-14 -21 -24 -22q-19 -2 -111 -7q-103 -5 -123 -7q-16 -4 -25.5 -16.5t-8.5 -28.5q17 -221 105 -418q53 -119 133 -222q87 -110 223 -150q43 -12 85 -8q117 11 199 90q60 58 128 135q26 30 47 72q27 48 50 113
q35 110 114 31zM1312 1942q-27 11 -53 31q-8 6 -3 22q5 13 15 17q21 6 43 9q146 -23 265.5 -64.5t220.5 -116.5q52 -40 111 -99q17 -14 19 -38q2 -23 -16 -39q-53 -56 -130 -132q-22 -21 -49 -38q-17 -10 -35.5 -5t-28.5 22q-13 23 -25 56q-34 83 -78 154q-42 77 -108 134
t-148 87z" />
    <glyph glyph-name="trademark" unicode="&#x2122;" horiz-adv-x="1331" 
d="M424 2014q34 -7 41 -41q10 -57 11 -111q-3 -19 -20 -27q-19 -5 -32 8q-8 10 -19.5 32.5t-17.5 31.5q-21 32 -58 44q-19 5 -31 -13q-28 -75 -25 -145q-6 -140 10 -272q2 -8 3.5 -57.5t15.5 -74.5q5 -8 -5 -21t-21 -15q-91 -15 -184 2q-16 3 -24 17q-8 15 -2 30
q20 43 20 96v359q0 17 -2 49q0 35 -33 47q-35 5 -54 -23q-10 -13 -28 -40.5t-28 -40.5q-11 -13 -21 -9q-23 11 -24 23q-6 39 -4 86q2 26 20 45t43 22q6 1 18 2.5t18 2.5h13h185v1q116 0 174 -1q41 -2 61 -7zM1260 1893q0 -51 -2.5 -155t-1 -185t9.5 -155q3 -20 -9 -35
t-33 -15q-74 0 -148 3q-15 1 -23.5 13.5t-6.5 31.5q5 52 16 172q-1 0 -3 0.5t-3 0.5v198q-2 8 -4 12q-18 -9 -18 -10q-26 -57 -76 -170t-75 -169q-6 -12 -8 -16.5t-8 -14t-11.5 -13.5t-14 -7.5t-18.5 -2.5q-7 0 -12.5 3.5t-9 6t-8 10t-6 9.5t-6 12.5t-4.5 11.5
q-24 57 -125 296q-12 30 -28 55q-3 4 -21 9q-1 0 -4 -4t-2 -6q8 -36 8 -77.5t-3 -91t-3 -77.5q0 -79 24 -144q4 -10 -5.5 -22t-21.5 -13q-20 -1 -48 4q-13 2 -20.5 12.5t-5.5 23.5q14 73 17 160q7 23 2 105t-4 105q8 99 -9 197q-5 23 9 41q13 17 37 19q31 4 49 5
q58 4 95 -18.5t55 -78.5q38 -103 88 -204q6 -19 16 -33q10 -13 29 -18q10 -2 18 13l78 168q9 19 26 56.5t25 56.5q12 30 40 46t60 11q17 -1 50 -1q58 -1 69 -19.5t-6 -62.5q-7 -29 -6 -49z" />
    </font>
</defs>
</svg>
